<svg width="40" height="42" viewBox="0 0 40 42" fill="none" xmlns="http://www.w3.org/2000/svg">
<path d="M10.042 4.78847C10.7556 5.68624 11.3961 6.21027 12.5877 6.27798C16.3824 6.45989 20.0624 7.63721 23.258 9.69166C26.7667 11.9058 29.585 15.0585 31.3934 18.7926C32.8542 21.777 33.6142 25.0555 33.6155 28.3782C33.6277 30.7249 33.6155 33.0715 33.6155 35.4196C33.6155 36.2496 33.5532 36.3119 32.7354 36.3119C25.4684 36.3119 18.2014 36.3119 10.9344 36.3119C10.6554 36.3119 10.3765 36.2591 9.98648 36.2185C10.427 35.1244 11.0083 34.0925 11.7157 33.1487C12.7258 31.7716 13.9797 30.6585 15.3447 29.6416C16.9899 28.4229 17.8064 26.7113 17.782 24.6829C17.7658 23.058 17.1253 21.624 15.9716 20.4432C15.652 20.1155 15.3108 20.0099 14.8761 20.1724C12.8775 20.9388 11.5545 22.3105 10.9344 24.3877C10.5538 25.6633 10.7136 26.882 11.0698 28.1115C11.0996 28.2157 11.1104 28.3268 11.1469 28.5245C10.8867 28.5762 10.6235 28.6115 10.3589 28.6301C8.96007 28.6382 7.55994 28.6301 6.16115 28.6301C5.32432 28.6301 5.24713 28.557 5.24713 27.6822C5.24713 22.4243 5.22547 17.1663 5.27151 11.907C5.27963 10.9794 4.98444 10.3647 4.29791 9.76885C2.82601 8.48922 1.42722 7.12429 0 5.79457L0.03927 5.6077H5.24849C5.24849 4.39713 5.25526 3.32063 5.24849 2.24547C5.23495 0.611073 5.24849 0.75596 6.70956 0.75596C8.22209 0.75596 9.73462 0.75596 11.2458 0.75596C16.3386 0.769501 21.1023 2.03965 25.476 4.64223C30.2668 7.49531 33.885 11.4696 36.3318 16.4784C37.3713 18.651 38.125 20.9491 38.5742 23.3153C39.1849 26.3769 39.0495 29.4656 39.0522 32.5502C39.0522 34.5177 39.3163 34.1074 37.5627 35.0594C36.8166 35.4656 36.0637 35.8515 35.1998 36.3065C35.1503 36.0191 35.1155 35.7294 35.0955 35.4385C35.0955 33.0242 35.1267 30.6084 35.0874 28.1941C35.0472 26.3464 34.7969 24.5092 34.3413 22.7181C33.5028 19.3197 31.9077 16.1546 29.6751 13.4588C27.2027 10.4279 24.0125 8.06249 20.3941 6.57723C17.2645 5.2789 13.8961 4.65553 10.5092 4.74784C10.4008 4.74649 10.2939 4.7641 10.042 4.78847ZM8.4875 16.3985L8.7204 16.4595L10.3453 13.8054C9.71295 13.8054 9.26881 13.7878 8.82737 13.8176C8.70957 13.8257 8.51051 13.9828 8.50645 14.0776C8.47666 14.8508 8.4875 15.624 8.4875 16.3985Z" fill="#3D3D3D"/>
<path d="M21.2638 41.7513H9.68627C8.96859 41.7513 8.86027 41.6768 8.91578 40.989C8.97342 40.1793 9.08014 39.374 9.23535 38.5773C9.38566 37.8353 9.49128 37.7987 10.2509 37.7987C15.5771 37.7987 20.9032 37.7987 26.2293 37.7987C28.3512 37.7987 30.4717 37.7987 32.5936 37.7987C33.5089 37.7987 33.601 37.8948 33.6118 38.8089C33.62 39.5085 33.62 40.2085 33.6118 40.9091C33.6118 41.7215 33.5658 41.7527 32.771 41.7527H21.2638V41.7513Z" fill="#3D3D3D"/>
</svg>
