<svg width="22" height="14" viewBox="0 0 22 14" fill="none" xmlns="http://www.w3.org/2000/svg">
<path fill-rule="evenodd" clip-rule="evenodd" d="M21.5 6.99997C21.5 6.80106 21.421 6.61029 21.2803 6.46964C21.1397 6.32899 20.9489 6.24997 20.75 6.24997H3.0605L7.781 1.53097C7.92183 1.39014 8.00095 1.19913 8.00095 0.999971C8.00095 0.800807 7.92183 0.609801 7.781 0.468971C7.64017 0.328141 7.44916 0.249023 7.25 0.249023C7.05084 0.249023 6.85983 0.328141 6.719 0.468971L0.719 6.46897C0.649155 6.53864 0.59374 6.6214 0.555931 6.71252C0.518122 6.80364 0.498659 6.90132 0.498659 6.99997C0.498659 7.09862 0.518122 7.1963 0.555931 7.28742C0.59374 7.37854 0.649155 7.4613 0.719 7.53097L6.719 13.531C6.85983 13.6718 7.05084 13.7509 7.25 13.7509C7.44916 13.7509 7.64017 13.6718 7.781 13.531C7.92183 13.3901 8.00095 13.1991 8.00095 13C8.00095 12.8008 7.92183 12.6098 7.781 12.469L3.0605 7.74997H20.75C20.9489 7.74997 21.1397 7.67095 21.2803 7.5303C21.421 7.38965 21.5 7.19888 21.5 6.99997Z" fill="black"/>
</svg>
