<svg width="94" height="94" viewBox="0 0 94 94" fill="none" xmlns="http://www.w3.org/2000/svg">
<path d="M93.96 47.078C93.96 55.978 91.46 64.298 87.14 71.378C86.39 72.608 85.58 73.788 84.73 74.938C84.1 75.778 83.45 76.588 82.76 77.378C80.97 79.478 78.99 81.408 76.86 83.168C76.16 83.738 75.44 84.298 74.7 84.828C74.3 85.128 73.89 85.418 73.47 85.698C72.75 86.178 72.02 86.648 71.27 87.088C71.13 87.188 70.98 87.268 70.83 87.358C70.68 87.448 70.52 87.538 70.36 87.628C68.88 88.478 67.33 89.238 65.75 89.918C62.42 91.358 58.88 92.408 55.2 93.028C54.79 93.108 54.39 93.168 53.98 93.228C52.94 93.378 51.89 93.488 50.83 93.568C50.72 93.578 50.61 93.588 50.5 93.588C49.77 93.638 49.02 93.668 48.27 93.678C47.96 93.698 47.65 93.698 47.34 93.698C43.58 93.698 39.91 93.248 36.41 92.408C33.56 91.728 30.82 90.778 28.2 89.578C26.12 88.658 24.12 87.568 22.21 86.348C21.5 85.898 20.8 85.418 20.11 84.918C19.3 84.338 18.51 83.728 17.74 83.078C15.73 81.438 13.86 79.618 12.15 77.648C11.77 77.208 11.4 76.768 11.04 76.318C10.65 75.838 10.27 75.348 9.89997 74.848C9.73997 74.638 9.58997 74.438 9.43997 74.228C8.20997 72.518 7.09997 70.718 6.10997 68.838C5.70997 68.098 5.33997 67.338 4.98997 66.578C2.23997 60.638 0.719971 54.028 0.719971 47.078C0.719971 21.328 21.59 0.458008 47.34 0.458008C73.09 0.458008 93.96 21.328 93.96 47.078Z" fill="#E8E1EF"/>
<path d="M74.701 84.8281C74.301 85.1281 73.891 85.4181 73.471 85.6981C72.611 86.2781 71.731 86.8381 70.831 87.3581C65.751 90.3281 60.061 92.3581 53.981 93.2281C53.691 93.2681 53.401 93.3081 53.101 93.3381C51.551 93.5381 49.971 93.6481 48.361 93.6781H48.271C47.961 93.6981 47.651 93.6981 47.341 93.6981C43.581 93.6981 39.911 93.2481 36.411 92.4081C31.301 91.1781 26.511 89.1081 22.211 86.3481C20.651 85.3581 19.161 84.2681 17.741 83.0781C15.731 81.4381 13.861 79.6181 12.151 77.6481C11.771 77.2081 11.401 76.7681 11.041 76.3181C10.451 68.3281 17.971 60.6281 19.311 59.0581C23.621 53.9581 35.741 51.1181 47.641 51.4581C47.641 51.4581 63.851 51.3981 70.601 58.6081C73.57 61.7781 74.56 73.0781 74.701 84.8281Z" fill="#92B4EA"/>
<path d="M20.721 57.6851L20.111 84.9201C19.301 84.3401 18.511 83.7301 17.741 83.0801C15.731 81.4401 13.861 79.6201 12.151 77.6501C11.771 77.2101 11.401 76.7701 11.041 76.3201C10.651 75.8401 10.271 75.3501 9.90096 74.8501C9.74096 74.6401 9.59096 74.4401 9.44096 74.2301C8.21096 72.5201 7.10096 70.7201 6.11096 68.8401C12.065 63.1311 20.721 57.6851 20.721 57.6851Z" fill="#92B4EA"/>
<path d="M82.76 77.378C80.97 79.478 78.99 81.408 76.86 83.168C76.16 83.738 75.44 84.298 74.7 84.828C74.3 85.128 73.89 85.418 73.47 85.698C73.28 85.828 73.08 85.958 72.89 86.078C72.65 86.238 72.41 86.398 72.17 86.538C71.73 86.828 71.28 87.098 70.83 87.358C69.2 88.318 67.5 89.168 65.75 89.918L59.96 85.148L71 59.058L82.76 77.378Z" fill="#92B4EA"/>
<path d="M38.754 43.0229L37.995 52.3769C37.995 52.3769 38.632 55.2139 44.752 56.2139C49.311 56.9599 51.799 54.2079 51.799 54.2079L51.721 52.1889L51.512 46.9369L40.586 43.5869L38.754 43.0229Z" fill="#F48462"/>
<path d="M40.5869 43.588C40.5899 43.878 40.6719 44.226 40.8109 44.629C42.7409 50.081 49.0909 51.738 51.7219 52.19L51.5129 46.938L40.5869 43.588Z" fill="black"/>
<path d="M55.8089 23.124C55.8089 23.124 60.2639 36.776 57.4899 43.935C54.7159 51.094 48.1229 49.287 44.2499 47.476C40.3759 45.665 38.7519 43.025 38.7519 43.025C38.7519 43.025 34.8819 43.933 32.7129 40.206C30.5439 36.479 32.4739 32.627 34.7029 31.917C36.9309 31.207 39.3259 32.998 39.3259 32.998L37.6999 28.998C37.6999 28.998 47.9619 10.466 55.8089 23.124Z" fill="#F48462"/>
<path d="M53.6369 39.7909C53.5719 39.7909 53.5049 39.7779 53.4409 39.7509C53.1869 39.6429 53.0689 39.3489 53.1769 39.0949C54.1529 36.8059 52.6409 34.0429 52.6259 34.0149C52.4919 33.7739 52.5779 33.4699 52.8189 33.3349C53.0599 33.2009 53.3639 33.2869 53.4989 33.5269C53.5719 33.6569 55.2679 36.7409 54.0969 39.4869C54.0159 39.6769 53.8309 39.7909 53.6369 39.7909Z" fill="black"/>
<path d="M38.178 39.061C38.058 39.061 37.94 39.007 37.862 38.905L34.696 34.769C34.562 34.595 34.595 34.345 34.77 34.211C34.944 34.075 35.194 34.11 35.328 34.285L38.494 38.421C38.628 38.595 38.594 38.845 38.42 38.979C38.347 39.035 38.262 39.061 38.178 39.061Z" fill="black"/>
<path d="M34.518 37.662C34.307 37.662 34.131 37.496 34.121 37.283C34.11 37.063 34.28 36.877 34.499 36.867L36.997 36.749C37.228 36.726 37.404 36.908 37.414 37.128C37.425 37.348 37.255 37.534 37.036 37.544L34.538 37.662C34.53 37.662 34.524 37.662 34.518 37.662Z" fill="black"/>
<path d="M48.212 34.294C47.941 34.294 47.718 34.078 47.712 33.806L47.653 31.335C47.647 31.059 47.865 30.83 48.141 30.823C48.416 30.814 48.646 31.035 48.653 31.311L48.712 33.782C48.718 34.058 48.5 34.287 48.224 34.294C48.22 34.294 48.216 34.294 48.212 34.294Z" fill="black"/>
<path d="M55.512 34.4629C55.246 34.4629 55.025 34.253 55.013 33.984L54.907 31.514C54.895 31.238 55.109 31.005 55.385 30.993C55.662 30.973 55.894 31.195 55.906 31.471L56.012 33.941C56.024 34.217 55.81 34.45 55.534 34.462C55.526 34.463 55.519 34.4629 55.512 34.4629Z" fill="black"/>
<path d="M47.0049 29.658C46.9069 29.658 46.8079 29.629 46.7209 29.569C46.4939 29.412 46.4369 29.1 46.5949 28.873C47.7409 27.221 49.916 27.976 50.009 28.009C50.269 28.102 50.4029 28.387 50.3109 28.646C50.2189 28.906 49.935 29.041 49.674 28.951C49.611 28.929 48.1249 28.422 47.4179 29.442C47.3189 29.583 47.1629 29.658 47.0049 29.658Z" fill="black"/>
<path d="M56.544 29.646C56.376 29.646 56.212 29.562 56.118 29.409C56.007 29.231 55.619 28.75 55.158 28.657C54.905 28.608 54.651 28.675 54.379 28.866C54.154 29.025 53.841 28.971 53.682 28.745C53.523 28.519 53.577 28.207 53.803 28.048C54.3 27.697 54.84 27.57 55.365 27.678C56.33 27.878 56.907 28.783 56.97 28.886C57.114 29.122 57.04 29.429 56.804 29.574C56.722 29.623 56.632 29.646 56.544 29.646Z" fill="black"/>
<path d="M55.8089 23.125L54.9649 21.892C54.9649 21.892 53.9279 22.603 51.6209 23.09C48.0779 23.858 43.9159 23.642 43.9159 23.642C43.9159 23.642 44.6149 24.657 44.4539 28.309C44.2939 31.973 40.4929 34.013 40.4929 34.013C39.1569 33.072 38.0299 32.538 37.0829 32.255C36.6729 32.139 36.3089 32.065 35.9699 32.024C33.7769 31.808 32.9609 33.162 32.9609 33.162C32.9609 33.162 27.9159 25.121 33.7529 19.343C37.8459 15.309 43.3259 15.567 46.2299 16.088C47.2169 16.268 47.9019 16.474 48.1529 16.552C48.2209 16.571 48.2559 16.581 48.2559 16.581C48.2559 16.581 56.9949 14.509 58.4479 15.804C59.9009 17.089 56.8569 23.179 55.8089 23.125Z" fill="black"/>
<path d="M50.754 43.536C50.413 43.536 50.045 43.477 49.668 43.322C49.166 43.116 48.808 42.773 48.631 42.329C48.322 41.55 48.668 40.747 48.708 40.658C48.764 40.534 48.868 40.439 48.996 40.393C49.123 40.347 49.264 40.356 49.386 40.416L52.649 42.038C52.804 42.115 52.908 42.267 52.924 42.439C52.941 42.611 52.866 42.78 52.729 42.884C52.683 42.919 51.853 43.536 50.754 43.536ZM49.506 41.593C49.502 41.718 49.515 41.847 49.563 41.964C49.639 42.152 49.797 42.2941 50.047 42.3961C50.49 42.5791 50.921 42.559 51.275 42.472L49.506 41.593Z" fill="black"/>
<path d="M53.1 93.338C51.55 93.538 49.97 93.648 48.36 93.678L44.89 56.668L48.3 57.558L53.1 93.338Z" fill="#A2C5F9"/>
<path d="M51.946 51.894C51.946 51.894 55.918 62.938 54.759 62.774C53.6 62.61 46.461 56.929 46.461 56.929C46.461 56.929 41.787 63.357 40.157 63.476C38.527 63.595 37.994 51.972 37.994 51.972C37.994 51.972 39.227 55.259 45.312 55.816C51.397 56.373 51.946 51.894 51.946 51.894Z" fill="#E6F4FF"/>
<path d="M71.271 87.088C71.131 87.188 70.981 87.268 70.831 87.358C70.681 87.448 70.521 87.538 70.361 87.628L66.371 68.938C66.321 68.668 66.491 68.408 66.761 68.348C67.031 68.288 67.291 68.458 67.351 68.728L71.271 87.088Z" fill="#E6F4FF"/>
</svg>
