<svg width="95" height="94" viewBox="0 0 95 94" fill="none" xmlns="http://www.w3.org/2000/svg">
<path d="M94.1299 47.1379C94.1299 52.0079 93.3899 56.7079 91.9999 61.1179C90.1699 66.9379 87.2299 72.2679 83.4199 76.8479C82.8299 77.5779 82.2099 78.2779 81.5699 78.9679C81.4699 79.0879 81.3699 79.1979 81.2599 79.3079L81.1399 79.4279C81.0399 79.5379 80.9299 79.6479 80.8299 79.7479C79.4899 81.1079 78.0699 82.3979 76.5699 83.5979C76.1999 83.8879 75.8299 84.1779 75.4499 84.4579C75.0699 84.7479 74.6799 85.0279 74.2899 85.2979C73.8899 85.5779 73.4999 85.8479 73.0999 86.1079C72.6999 86.3679 72.2899 86.6279 71.8799 86.8779C71.7199 86.9779 71.5499 87.0779 71.3899 87.1779C71.1799 87.3079 70.9599 87.4379 70.7399 87.5579C70.6499 87.6079 70.5699 87.6579 70.4799 87.7079C70.1999 87.868 69.9199 88.0179 69.6399 88.1679C69.2599 88.3779 68.8699 88.5879 68.4799 88.7779C68.1999 88.9179 67.9199 89.0579 67.6299 89.1979C67.4599 89.2779 67.2899 89.3679 67.1099 89.4379C66.8399 89.5679 66.5699 89.6979 66.2899 89.8079C65.8999 89.9879 65.5099 90.1579 65.1099 90.3179C64.8299 90.4279 64.5599 90.548 64.2799 90.6479C63.9599 90.768 63.6499 90.8879 63.3299 90.9979C63.2099 91.0479 63.0899 91.0879 62.9699 91.1279C62.5699 91.2679 62.1699 91.408 61.7599 91.5379C61.4099 91.658 61.0499 91.7679 60.6899 91.8579C60.3999 91.9579 60.1099 92.0379 59.8199 92.1179C59.7399 92.1379 59.6599 92.158 59.5899 92.1779C59.1499 92.298 58.7099 92.408 58.2699 92.5079C56.8499 92.8479 55.3999 93.118 53.9399 93.3179C53.4199 93.3879 52.8899 93.4579 52.3599 93.5079C51.8299 93.5679 51.2899 93.6079 50.7599 93.6479C49.6799 93.7179 48.5999 93.7579 47.5099 93.7579C45.7299 93.7579 43.9599 93.6579 42.2299 93.4679C41.9899 93.4479 41.7599 93.4179 41.5299 93.3879C41.5099 93.3779 41.4999 93.3779 41.4799 93.3779C39.2699 93.0879 37.1099 92.6479 35.0099 92.0579C32.5399 91.3779 30.1499 90.4879 27.8699 89.4279C27.5199 89.2679 27.1699 89.0979 26.8199 88.9279C24.5699 87.8179 22.4299 86.5279 20.4199 85.0779C18.3999 83.6379 16.4999 82.0379 14.7399 80.2879C14.0099 79.5679 13.3099 78.8279 12.6399 78.0579C11.5399 76.8379 10.5299 75.5579 9.5799 74.2279C9.19989 73.6879 8.8199 73.1479 8.4599 72.5879C7.5599 71.2279 6.73989 69.8179 5.99989 68.3679C2.72989 61.9979 0.889893 54.7879 0.889893 47.1379C0.889893 21.3879 21.7599 0.517944 47.5099 0.517944C73.2599 0.517944 94.1299 21.3879 94.1299 47.1379Z" fill="#E8E1EF"/>
<path d="M37.4498 27.8239C37.4498 27.8239 21.5308 33.9119 20.7188 51.9299C19.5448 77.9719 50.7548 71.9349 50.7548 71.9349C50.7548 71.9349 68.4318 73.7689 73.3208 60.7379C78.2108 47.7069 62.4938 39.8409 62.4938 39.8409C62.4938 39.8409 43.4378 23.0589 37.4498 27.8239Z" fill="black"/>
<path d="M83.4199 76.8479C79.3899 66.0379 67.9199 49.5979 48.7999 50.2979C47.4999 50.3479 46.2399 50.4679 45.0299 50.6479C44.9899 50.6579 44.9499 50.6679 44.9099 50.6679C27.9999 53.3179 16.8099 68.4479 12.6399 78.0579C13.3099 78.8279 14.0099 79.5679 14.7399 80.2879C16.4999 82.0379 18.3999 83.6379 20.4199 85.0779C22.4299 86.5279 24.5699 87.8179 26.8199 88.9279C27.1699 89.0979 27.5199 89.2679 27.8699 89.4279C30.1499 90.4879 32.5399 91.3779 35.0099 92.0579C37.1099 92.6479 39.2699 93.0879 41.4799 93.3779C41.4999 93.3779 41.5099 93.3779 41.5299 93.3879C41.7599 93.4179 41.9899 93.4479 42.2199 93.4679C43.9599 93.6579 45.7299 93.7579 47.5099 93.7579C48.5999 93.7579 49.6799 93.7179 50.7599 93.6479C51.2899 93.6079 51.8299 93.5679 52.3599 93.5079C52.8899 93.4579 53.4199 93.3879 53.9399 93.3179C55.3999 93.1179 56.8499 92.8479 58.2699 92.5079C58.7099 92.4079 59.1499 92.2979 59.5899 92.1779C59.6599 92.1579 59.7399 92.1379 59.8199 92.1179C60.1099 92.0379 60.3999 91.9579 60.6899 91.8579C61.0499 91.7679 61.4099 91.6579 61.7599 91.5379C62.1699 91.4079 62.5699 91.2679 62.9699 91.1279C63.0899 91.0879 63.2099 91.0479 63.3299 90.9979C63.6499 90.8879 63.9599 90.7679 64.2799 90.6479C64.5599 90.5479 64.8299 90.4279 65.1099 90.3179C65.5099 90.1579 65.8999 89.9879 66.2899 89.8079C66.5699 89.6979 66.8399 89.5679 67.1099 89.4379C67.2899 89.3679 67.4599 89.2779 67.6299 89.1979C67.9199 89.0579 68.1999 88.9179 68.4799 88.7779C68.8699 88.5879 69.2599 88.3779 69.6399 88.1679C69.9199 88.0179 70.1999 87.8679 70.4799 87.7079C70.5699 87.6579 70.6499 87.6079 70.7399 87.5579C70.9599 87.4379 71.1799 87.3079 71.3899 87.1779C71.5499 87.0779 71.7199 86.9779 71.8799 86.8779C72.2899 86.6279 72.6999 86.3679 73.0999 86.1079C73.4999 85.8479 73.8899 85.5779 74.2899 85.2979C74.6799 85.0279 75.0699 84.7479 75.4499 84.4579C75.8299 84.1779 76.1999 83.8879 76.5699 83.5979C78.0699 82.3979 79.4899 81.1079 80.8299 79.7479L83.4199 76.8479Z" fill="#68B6D8"/>
<path d="M71.3898 87.176C64.4098 91.356 56.2398 93.756 47.5098 93.756C45.7298 93.756 43.9598 93.656 42.2298 93.466C41.9898 93.446 41.7598 93.416 41.5298 93.386C41.5098 93.376 41.4998 93.376 41.4798 93.376C39.2698 93.086 37.1098 92.646 35.0098 92.056C32.5398 91.376 30.1498 90.486 27.8698 89.426C27.5198 89.266 27.1698 89.096 26.8198 88.926C24.5698 87.816 22.4298 86.526 20.4198 85.076C20.3298 78.206 20.2798 72.786 20.2798 72.786L38.0398 59.606L46.7598 53.136C46.8698 53.136 46.9798 53.136 47.0898 53.146C51.8898 53.246 55.9398 54.226 59.1298 55.406C59.6398 55.606 60.1298 55.796 60.5998 55.996C65.0298 57.876 67.4298 59.986 67.4298 59.986C67.4298 59.986 69.5098 73.766 71.3898 87.176Z" fill="#68B6D8"/>
<path d="M44.625 43.845L44.993 53.693C44.993 53.693 46.838 56.717 52.996 56.987C57.583 57.188 59.213 55.884 59.213 55.884L58.5 51.371L57.678 46.211L46.501 44.186L44.625 43.845Z" fill="#F48462"/>
<path d="M44.625 43.345C44.662 43.631 44.784 43.965 44.968 44.346C47.512 49.501 55.85 51.234 58.5 51.372L57.678 46.212L44.625 43.345Z" fill="black"/>
<path d="M59.1248 22.2029C59.1248 22.2029 65.1238 35.1559 63.2258 42.5469C61.3278 49.9389 54.6088 48.9289 50.5728 47.5959C46.5368 46.2629 44.6238 43.8479 44.6238 43.8479C44.6238 43.8479 40.9108 45.1979 38.3318 41.7739C35.7538 38.3499 37.2068 34.3209 39.3228 33.3589C41.4388 32.3969 44.0128 33.8839 44.0128 33.8839L41.9388 30.1269C41.9388 30.1269 49.8948 10.6289 59.1248 22.2029Z" fill="#F48462"/>
<path d="M61.0618 27.5849C61.0378 27.5849 61.0128 27.583 60.9878 27.58L58.4268 27.2C58.1538 27.159 57.9648 26.9049 58.0058 26.6319C58.0468 26.3589 58.3008 26.1759 58.5738 26.2109L61.1348 26.5909C61.4078 26.6319 61.5968 26.8859 61.5558 27.1589C61.5188 27.4069 61.3048 27.5849 61.0618 27.5849Z" fill="black"/>
<path d="M51.5099 28.6439C51.3149 28.6439 51.1299 28.5289 51.0489 28.3379C50.9419 28.0829 51.0619 27.7899 51.3159 27.6829L54.2879 26.4349C54.5429 26.3299 54.8359 26.4479 54.9429 26.7019C55.0499 26.9569 54.9299 27.2499 54.6759 27.3569L51.7039 28.6059C51.6409 28.6309 51.5749 28.6439 51.5099 28.6439Z" fill="black"/>
<path d="M59.0458 38.2069C59.0288 38.2069 59.0118 38.2059 58.9948 38.2049C58.7198 38.1769 58.5198 37.9319 58.5478 37.6569C58.9588 33.6139 57.2828 31.5789 57.2658 31.5589C57.0878 31.3479 57.1128 31.0339 57.3228 30.8549C57.5318 30.6759 57.8458 30.6999 58.0258 30.9079C58.1068 31.0019 59.9998 33.2569 59.5438 37.7579C59.5168 38.0149 59.2988 38.2069 59.0458 38.2069Z" fill="black"/>
<path d="M54.962 42.585C54.764 42.585 54.558 42.558 54.345 42.498C52.692 42.025 52.5059 40.129 52.4989 40.049C52.4849 39.887 52.5499 39.729 52.6739 39.624C52.7979 39.519 52.966 39.48 53.123 39.522L57.0059 40.528C57.1679 40.57 57.2979 40.69 57.3529 40.848C57.4079 41.006 57.38 41.181 57.279 41.314C57.233 41.372 56.294 42.585 54.962 42.585ZM53.709 40.706C53.87 41.045 54.1469 41.401 54.6199 41.536C55.0939 41.674 55.537 41.492 55.871 41.266L53.709 40.706Z" fill="black"/>
<path d="M44.0308 39.2859C43.9619 39.2859 43.8918 39.2719 43.8248 39.2409L38.5518 36.8439C38.3008 36.7299 38.1898 36.4329 38.3038 36.1819C38.4178 35.9319 38.7128 35.8179 38.9658 35.9339L44.2388 38.3309C44.4898 38.4449 44.6008 38.7419 44.4868 38.9929C44.4028 39.1769 44.2218 39.2859 44.0308 39.2859Z" fill="black"/>
<path d="M39.334 40.5049C39.205 40.5049 39.076 40.4559 38.978 40.3569C38.784 40.1609 38.786 39.8439 38.982 39.6499L41.307 37.3519C41.504 37.1569 41.82 37.1589 42.014 37.3559C42.208 37.5519 42.206 37.8689 42.01 38.0629L39.685 40.3609C39.587 40.4569 39.46 40.5049 39.334 40.5049Z" fill="black"/>
<path d="M51.5099 23.605C51.5099 23.605 54.5129 23.176 57.6459 24.959C60.7789 26.742 61.4229 28.48 61.4229 28.48C61.4229 28.48 63.3609 23.876 59.1129 19.814C54.8649 15.752 46.7159 14.626 42.0179 19.432C37.3199 24.238 37.6079 28.48 37.6079 28.48L44.0139 33.884C44.0139 33.884 53.9069 32.09 51.5099 23.605Z" fill="black"/>
<path d="M40.8748 20.7229C40.8748 20.7229 34.8308 9.24392 28.7038 14.0949C22.5778 18.9459 29.3998 28.7359 35.4848 29.4499C41.5708 30.1639 40.8748 20.7229 40.8748 20.7229Z" fill="black"/>
<path d="M42.2298 93.466C41.9898 93.446 41.7598 93.416 41.5298 93.386C41.5098 93.376 41.4998 93.376 41.4798 93.376C39.2698 93.086 37.1098 92.646 35.0098 92.056L38.0398 59.606L38.1398 58.576L44.6258 55.314L43.4578 52.481C43.4578 52.481 50.3398 79.526 42.2298 93.466Z" fill="#68B6D8"/>
<path d="M71.8798 86.8759C71.7198 86.9759 71.5498 87.0759 71.3898 87.1759C71.1798 87.3059 70.9598 87.4359 70.7398 87.5559C72.9098 76.2259 68.4698 69.7359 68.4198 69.6659C68.2598 69.4359 68.2998 69.1059 68.5198 68.9359C68.7498 68.7659 69.0598 68.8159 69.2198 69.0459C69.4198 69.3259 73.7598 75.6259 71.8798 86.8759Z" fill="#F7B369"/>
<path d="M53.5579 57.4879C47.8799 57.4879 44.6669 54.0769 44.6239 54.0309C44.4379 53.8279 44.4519 53.5119 44.6539 53.3249C44.8579 53.1379 45.1739 53.1509 45.3599 53.3539C45.5709 53.5819 50.6359 58.9089 59.5889 55.1999C59.8429 55.0959 60.1369 55.2149 60.2419 55.4709C60.3479 55.7259 60.2269 56.0179 59.9709 56.1239C57.5819 57.1149 55.4349 57.4879 53.5579 57.4879Z" fill="#F7B369"/>
<path d="M45.3359 43.3449C45.3359 44.3829 44.4949 45.2239 43.4569 45.2239C42.4189 45.2239 41.5779 44.3829 41.5779 43.3449C41.5779 42.3069 42.4189 41.4659 43.4569 41.4659C44.4949 41.4649 45.3359 42.3069 45.3359 43.3449Z" fill="#E6F4FF"/>
<path d="M52.9968 34.0329C52.7208 34.0329 52.4968 33.8089 52.4968 33.5329V31.2339C52.4968 31.1029 52.5488 30.9769 52.6408 30.8829L53.6588 29.8499C53.8528 29.6529 54.1688 29.6509 54.3668 29.8449C54.5628 30.0389 54.5658 30.3559 54.3718 30.5529L53.4978 31.4399V33.5339C53.4968 33.8099 53.2728 34.0329 52.9968 34.0329Z" fill="black"/>
<path d="M60.552 34.033C60.276 34.033 60.052 33.809 60.052 33.533V31.234C60.052 31.103 60.104 30.977 60.196 30.883L61.214 29.85C61.407 29.653 61.723 29.65 61.921 29.845C62.118 30.039 62.12 30.355 61.926 30.552L61.052 31.439V33.533C61.052 33.81 60.829 34.033 60.552 34.033Z" fill="black"/>
</svg>
