<svg width="94" height="94" viewBox="0 0 94 94" fill="none" xmlns="http://www.w3.org/2000/svg">
<path d="M93.3101 47.1379C93.3101 53.8379 91.8901 60.2179 89.3501 65.9779C88.7901 67.2279 88.1901 68.4479 87.5301 69.6379C87.2001 70.2479 86.8501 70.8479 86.4901 71.4379C85.8501 72.4879 85.1701 73.4979 84.4601 74.4779C84.34 74.6379 84.2301 74.7979 84.1201 74.9479C84.1101 74.9679 84.1 74.9779 84.08 74.9979C81.8 78.0479 79.1501 80.8079 76.2101 83.2279C75.1201 84.1179 73.9901 84.9679 72.8201 85.7579C71.9601 86.338 71.0801 86.8979 70.1801 87.4179C69.5601 87.7779 68.9301 88.1279 68.2901 88.4679C63.7001 90.8679 58.67 92.5279 53.33 93.2879C51.46 93.5579 49.5601 93.7079 47.6201 93.7379C47.3101 93.7579 47.0001 93.7579 46.6901 93.7579C42.9301 93.7579 39.2601 93.3079 35.7601 92.4679C30.6501 91.2379 25.8601 89.1679 21.5601 86.4079C20.0001 85.4179 18.5101 84.3279 17.0901 83.1379C15.0801 81.4979 13.2101 79.6779 11.5001 77.7079C10.7201 76.7979 9.96006 75.8679 9.25006 74.9079C9.09006 74.6979 8.94007 74.4979 8.79007 74.2879C7.08007 71.8979 5.58006 69.3379 4.34006 66.6379C1.59006 60.6979 0.0700684 54.0879 0.0700684 47.1379C0.0700684 21.3879 20.9401 0.517944 46.6901 0.517944C72.4401 0.517944 93.3101 21.3879 93.3101 47.1379Z" fill="#E8E1EF"/>
<path d="M76.21 83.2259C75.12 84.1159 73.99 84.9659 72.82 85.7559C71.96 86.3359 71.08 86.8959 70.18 87.4159C65.1 90.3859 59.41 92.4159 53.33 93.2859C51.46 93.5559 49.56 93.7059 47.62 93.7359C47.31 93.7559 47 93.7559 46.69 93.7559C42.93 93.7559 39.26 93.3059 35.76 92.4659C30.65 91.2359 25.86 89.1659 21.56 86.4059C20 85.4159 18.51 84.3259 17.09 83.1359C15.08 81.4959 13.21 79.6759 11.5 77.7059C10.72 76.7959 9.96 75.8659 9.25 74.9059C12.43 67.3759 18.24 56.5859 26.16 53.9459C38.63 49.7859 65.2 55.6459 65.2 55.6459C65.2 55.6459 74.3 60.0659 76.21 83.2259Z" fill="#40507F"/>
<path d="M70.1801 87.4159C65.1001 90.3859 59.4101 92.4159 53.3301 93.2859C51.4601 93.5559 49.5601 93.7059 47.6201 93.7359C47.3101 93.7559 47.0001 93.7559 46.6901 93.7559C42.9301 93.7559 39.2601 93.3059 35.7601 92.4659C30.6501 91.2359 25.8601 89.1659 21.5601 86.4059C20.0001 85.4159 18.5101 84.3259 17.0901 83.1359C17.1701 70.9459 18.0901 59.8059 21.0401 57.1459C22.5201 55.8059 24.2901 54.7559 26.1601 53.9459C30.4901 52.0759 35.3301 51.4459 38.5101 51.2359C40.6201 51.0959 41.9901 51.1459 41.9901 51.1459C41.9901 51.1459 44.8201 51.2559 48.6201 51.6759C49.6701 51.8059 50.7301 51.9359 51.8401 52.0959C58.3101 53.0259 65.8901 54.8359 67.8501 58.2559C69.5401 61.1959 70.0801 74.3659 70.1801 87.4159Z" fill="#40507F"/>
<path d="M55.641 26.7279L36.371 41.3179C36.371 41.3179 25.871 30.7779 30.141 24.7579C32.791 21.0079 38.151 19.2079 41.821 18.3779C42.241 18.2879 42.631 18.2079 43.001 18.1379C44.581 17.8279 45.641 17.7379 45.641 17.7379L45.651 17.7979C46.321 17.5479 53.001 12.7179 56.661 14.3179C61.69 16.5079 55.641 26.7279 55.641 26.7279Z" fill="black"/>
<path d="M38.3701 43.5969L37.7351 53.9509C37.7351 53.9509 39.4201 57.0419 45.4461 57.9059C49.9361 58.5499 51.5831 57.6269 51.5831 57.6269L51.2761 52.3449L50.9701 47.1929L40.1811 44.1159L38.3701 43.5969Z" fill="#F48462"/>
<path d="M40.1802 44.116C40.1892 44.4 40.2762 44.741 40.4202 45.134C42.4192 50.448 48.6852 51.952 51.2762 52.345L50.9702 47.193L40.1802 44.116Z" fill="black"/>
<path d="M54.7261 23.7349C54.7261 23.7349 59.363 37.0499 56.779 44.1309C54.194 51.2119 47.6891 49.5659 43.8511 47.8629C40.0141 46.1609 38.369 43.5999 38.369 43.5999C38.369 43.5999 34.588 44.5659 32.387 40.9489C30.186 37.3329 32.006 33.5139 34.18 32.7739C36.354 32.0339 38.7391 33.7459 38.7391 33.7459L37.066 29.8509C37.064 29.8519 46.7791 11.4609 54.7261 23.7349Z" fill="#F48462"/>
<path d="M38.0371 39.4C37.9261 39.4 37.8131 39.363 37.7211 39.287L33.2621 35.646C33.0481 35.472 33.0171 35.156 33.1911 34.942C33.3681 34.728 33.6821 34.698 33.8951 34.871L38.3541 38.512C38.5681 38.686 38.5991 39.002 38.4251 39.216C38.3251 39.337 38.1821 39.4 38.0371 39.4Z" fill="black"/>
<path d="M33.7881 39.0809C33.5541 39.0809 33.3451 38.9149 33.2981 38.6759C33.2461 38.4049 33.4231 38.1429 33.6951 38.0899L36.8151 37.4869C37.0831 37.4339 37.3471 37.6109 37.4011 37.8829C37.4531 38.1539 37.2761 38.4159 37.0051 38.4679L33.8851 39.0709C33.8521 39.0789 33.8201 39.0809 33.7881 39.0809Z" fill="black"/>
<path d="M45.7572 29.306C45.6402 29.306 45.5232 29.265 45.4282 29.182C45.2202 29 45.1992 28.685 45.3812 28.477C46.9332 26.701 48.8372 27.163 49.6272 27.654C49.8612 27.8 49.9332 28.109 49.7872 28.343C49.6392 28.577 49.3332 28.648 49.0992 28.504C48.9352 28.405 47.4832 27.593 46.1322 29.135C46.0342 29.248 45.8962 29.306 45.7572 29.306Z" fill="black"/>
<path d="M55.8161 28.8809C55.6941 28.8809 55.5711 28.8359 55.4741 28.7459C54.4891 27.8229 53.3501 28.3659 53.3031 28.3889C53.0561 28.5119 52.7571 28.4109 52.6331 28.1659C52.5101 27.9199 52.6071 27.6219 52.8511 27.4969C52.9231 27.4599 54.6461 26.6049 56.1581 28.0149C56.3591 28.2039 56.3701 28.5199 56.1811 28.7219C56.0831 28.8279 55.9501 28.8809 55.8161 28.8809Z" fill="black"/>
<path d="M53.4681 38.623C53.4111 38.623 53.3531 38.613 53.2961 38.593C53.0361 38.498 52.9031 38.211 52.9981 37.951C54.3141 34.358 52.6021 32.276 52.5281 32.189C52.3501 31.979 52.3751 31.664 52.5841 31.485C52.7931 31.305 53.1061 31.328 53.2861 31.537C53.3761 31.641 55.4631 34.125 53.9371 38.294C53.8631 38.498 53.6721 38.623 53.4681 38.623Z" fill="black"/>
<path d="M55.4641 33.8529C55.2321 33.8529 55.0252 33.6909 54.9762 33.4549L54.4731 31.0399C54.4651 31.0059 54.4622 30.9709 54.4622 30.9369C54.4622 30.7049 54.6241 30.4969 54.8601 30.4479C55.1241 30.3919 55.3951 30.5639 55.4511 30.8349L55.9542 33.2499C55.9622 33.2839 55.9651 33.3189 55.9651 33.3519C55.9651 33.5839 55.8031 33.7919 55.5671 33.8409C55.5321 33.8489 55.4981 33.8529 55.4641 33.8529Z" fill="black"/>
<path d="M47.9 34.028C47.669 34.028 47.461 33.866 47.412 33.63L46.909 31.216C46.852 30.945 47.026 30.681 47.297 30.625C47.562 30.568 47.832 30.742 47.888 31.012L48.391 33.426C48.448 33.697 48.274 33.961 48.003 34.017C47.969 34.025 47.935 34.028 47.9 34.028Z" fill="black"/>
<path d="M55.637 26.727C55.637 26.727 54.64 24.577 52.059 24.401C49.477 24.225 47.858 25.951 47.858 25.951C47.858 25.951 48.724 30.37 45.07 32.465C41.416 34.56 38.738 33.747 38.738 33.747L36.246 32.683L34.606 28.846L42.463 21.356L52.31 16.907L56.9 21.618L55.637 26.727Z" fill="black"/>
<path d="M50.6111 42.5889C50.2081 42.5889 47.8231 42.4869 46.8931 40.1409C46.7911 39.8839 46.9171 39.5939 47.1731 39.4919C47.4291 39.3899 47.7201 39.5159 47.8221 39.7729C48.5601 41.6359 50.5921 41.5879 50.6321 41.5889C50.9171 41.5889 51.1391 41.8009 51.1491 42.0709C51.1581 42.3469 50.9421 42.5779 50.6661 42.5879C50.6591 42.5879 50.6411 42.5889 50.6111 42.5889Z" fill="black"/>
<path d="M48.7571 58.71C41.9781 58.71 36.8191 54.015 36.5691 53.784C36.3671 53.596 36.3541 53.281 36.5421 53.078C36.7311 52.875 37.0451 52.863 37.2491 53.05C37.3151 53.112 44.0681 59.251 51.9311 57.329C52.1971 57.263 52.4691 57.428 52.5351 57.696C52.6001 57.964 52.4361 58.235 52.1681 58.3C50.9981 58.586 49.8561 58.71 48.7571 58.71Z" fill="white"/>
<path d="M84.4601 74.4779C84.3301 74.6579 84.2101 74.8279 84.0801 74.9979C81.8001 78.0479 79.1501 80.8079 76.2101 83.2279C75.1301 84.1079 74.0102 84.9579 72.8502 85.7379L64.1702 82.0379L67.2791 57.4709L84.4601 74.4779Z" fill="#40507F"/>
</svg>
