<svg width="94" height="94" viewBox="0 0 94 94" fill="none" xmlns="http://www.w3.org/2000/svg">
<path d="M93.49 47.136C93.49 53.396 92.26 59.366 90.02 64.816C88.38 68.806 86.2 72.526 83.57 75.876C77.53 83.586 69.11 89.346 59.41 92.046C55.42 93.166 51.21 93.756 46.87 93.756C45.22 93.756 43.59 93.676 41.98 93.506C40.93 93.396 39.89 93.246 38.86 93.066C37.72 92.866 36.6 92.626 35.49 92.346C35.28 92.296 35.06 92.246 34.85 92.186C33.07 91.716 31.32 91.136 29.63 90.456C26.65 89.276 23.81 87.786 21.17 86.036C20.35 85.496 19.54 84.926 18.76 84.336C17.2 83.156 15.72 81.886 14.32 80.516C10.99 77.276 8.16001 73.546 5.92001 69.446C2.30001 62.816 0.23999 55.216 0.23999 47.136C0.23999 21.386 21.12 0.515991 46.87 0.515991C72.62 0.515991 93.49 21.386 93.49 47.136Z" fill="#E8E1EF"/>
<path d="M35.385 25.929C35.385 25.929 30.9239 29.671 30.5029 33.426C30.0809 37.181 30.081 37.181 30.081 37.181C30.081 37.181 24.7339 38.889 23.1189 45.35C20.9279 54.121 26.906 57.171 26.906 57.171L73.342 62.184C73.342 62.184 78.799 57.401 77.707 49.716C76.615 42.03 72.116 39.585 72.116 39.585C72.116 39.585 72.857 34.644 70.37 29.68C67.501 23.952 61.609 23.895 61.609 23.895L35.385 25.929Z" fill="black"/>
<path d="M83.5699 75.8761C77.5299 83.5861 69.1099 89.3461 59.4099 92.0461C55.4199 93.1661 51.2099 93.7561 46.8699 93.7561C45.2199 93.7561 43.5899 93.6761 41.9799 93.5061C40.9299 93.3961 39.8899 93.2461 38.8599 93.0661C37.7199 92.8661 36.5999 92.6261 35.4899 92.3461C35.2799 92.2961 35.0599 92.2461 34.8499 92.1861C33.0699 91.7161 31.3199 91.1361 29.6299 90.4561C26.6499 89.2761 23.8099 87.7861 21.1699 86.0361C21.2699 83.5461 21.4399 82.1361 21.4399 82.1361L28.9699 58.3861L29.7099 56.0461C30.1499 54.6461 31.0499 53.4761 32.2399 52.6961C32.8499 52.2861 33.5399 51.9861 34.2799 51.8261C35.6599 51.5061 37.3799 51.1561 39.3299 50.8261C39.9399 50.7361 40.5499 50.6361 41.1999 50.5461C43.2199 50.2661 45.4399 50.0461 47.7299 49.9461C49.1099 49.8861 50.4899 49.8761 51.8799 49.9261C52.4999 49.9461 53.1199 49.9761 53.7399 50.0161C54.4599 50.0761 55.1699 50.1461 55.8899 50.2261C56.6899 50.3261 57.4799 50.4461 58.2699 50.6061C60.0699 50.9461 61.8299 51.4261 63.4999 52.0761C67.9299 53.8061 71.7799 57.3661 74.9499 61.3561C78.9899 66.4461 81.9299 72.2461 83.5699 75.8761Z" fill="#F7B369"/>
<path d="M53.8821 47.791C53.8821 47.791 57.1471 48.861 58.1371 50.38C59.2471 52.084 57.1711 56.569 51.2651 60.057C46.9501 62.605 43.3081 63.506 43.3081 63.506C43.3081 63.506 39.5511 58.31 38.8301 55.151C38.1101 51.992 40.7541 47.849 40.7541 47.849L53.8821 47.791Z" fill="#A37B90"/>
<path d="M64.4509 33.2479C61.1009 47.4979 48.5909 43.2379 48.5909 43.2379C48.5909 43.2379 29.3509 40.6579 36.5909 31.7679C36.5909 31.7679 32.6709 25.7679 32.7009 22.8279C32.7209 20.7979 36.9909 16.0679 43.0009 14.2779C43.6009 14.0979 44.2109 13.9479 44.8409 13.8379C47.0609 13.4279 49.4709 13.4479 51.9509 14.1479C62.2099 17.0279 65.7499 27.7079 64.4509 33.2479Z" fill="black"/>
<path d="M40.7209 46.589L40.7539 46.849L41.5679 51.73L42.1909 55.559C42.1909 55.559 41.9709 56.494 46.4149 55.66C52.3679 54.519 53.9909 51.705 53.9909 51.705L53.1519 42.653L51.3739 43.221L40.7209 46.589Z" fill="#F48462"/>
<path d="M40.7539 46.849L41.5679 51.73C44.4419 51.022 49.5989 49.114 51.1869 44.265C51.3069 43.872 51.3749 43.523 51.3769 43.24L40.7629 46.772L40.7539 46.849Z" fill="black"/>
<path d="M36.0011 23.591C36.0011 23.591 31.9691 37.047 34.8511 43.982C37.7341 50.917 44.137 48.993 47.882 47.13C51.627 45.267 53.1521 42.647 53.1521 42.647C53.1521 42.647 56.958 43.443 58.991 39.747C61.024 36.051 59.0441 32.33 56.8491 31.689C54.653 31.048 52.3541 32.856 52.3541 32.856L53.8491 28.906C53.8491 28.906 43.3731 11.027 36.0011 23.591Z" fill="#F48462"/>
<path d="M38.0889 39.513C37.8989 39.513 37.718 39.404 37.634 39.22C36.422 36.559 38.01 33.498 38.077 33.369C38.206 33.124 38.509 33.032 38.752 33.16C38.996 33.289 39.09 33.591 38.962 33.835C38.947 33.862 37.538 36.596 38.544 38.806C38.658 39.057 38.5479 39.354 38.2959 39.468C38.2289 39.499 38.1579 39.513 38.0889 39.513Z" fill="black"/>
<path d="M53.6111 38.8679C53.5081 38.8679 53.4061 38.8369 53.3171 38.7719C53.0931 38.6089 53.0451 38.2969 53.2071 38.0739L56.2041 33.9539C56.3671 33.7299 56.6801 33.6819 56.9021 33.8439C57.1261 34.0059 57.1751 34.3189 57.0121 34.5419L54.0151 38.6619C53.9181 38.7959 53.7661 38.8679 53.6111 38.8679Z" fill="black"/>
<path d="M57.1561 37.4129C57.1441 37.4129 54.6991 37.3569 54.6991 37.3569C54.4241 37.3509 54.2051 37.1219 54.2111 36.8449C54.2191 36.5689 54.4541 36.3729 54.7231 36.3569L57.1681 36.4129C57.4431 36.4189 57.6621 36.6479 57.6561 36.9249C57.6491 37.1959 57.4281 37.4129 57.1561 37.4129Z" fill="black"/>
<path d="M52.353 32.856C52.353 32.856 46.415 30.714 43.885 26.959C41.355 23.204 41.022 21.201 41.022 21.201C41.022 21.201 40.543 23.938 38.591 24.817C36.639 25.697 35.385 25.929 35.385 25.929L34.568 29.836L34.269 20.807C34.269 20.807 39.398 17.16 40.135 17.065C40.872 16.971 50.384 17.446 50.993 17.937C51.602 18.428 55.458 25.274 55.458 25.274L56.079 28.51L52.353 32.856Z" fill="black"/>
<path d="M53.5951 48.4299C53.5951 48.4299 47.2381 54.4229 43.5161 54.4569C39.7931 54.4919 40.3151 51.3959 40.3151 51.3959L40.9291 58.5389L44.2171 59.6169L52.4381 56.3039L57.0521 51.1399L53.5951 48.4299Z" fill="#A37B90"/>
<path d="M46.871 59.978C46.871 59.978 49.659 63.791 50.225 69.774C50.792 75.757 47.318 82.48 47.318 82.48C47.318 82.48 41.749 76.165 41.012 71.398C40.275 66.631 42.826 59.863 42.826 59.863C42.826 59.863 40.3021 65.605 39.6781 69.119C39.0541 72.633 38.193 77.149 38.193 77.149C38.193 77.149 34.814 72.669 35.016 67.351C35.218 62.033 40.93 58.54 40.93 58.54L46.871 59.978Z" fill="#A37B90"/>
<path d="M46.158 61.735C44.62 61.735 42.639 61.198 42.362 61.121C42.332 61.112 42.3081 61.103 42.2851 61.093C42.1771 61.043 42.0851 60.953 42.0351 60.834C41.6981 60.04 40.0721 56.001 41.1211 54.549C41.3251 54.268 41.7211 53.95 42.4281 54.003C42.9951 54.05 43.443 54.317 43.722 54.776C44.557 56.148 43.627 59.057 43.167 60.295C44.247 60.554 46.0861 60.899 46.9371 60.652C47.8351 60.393 48.345 57.297 47.986 55.548C47.931 55.277 48.1051 55.013 48.3761 54.958C48.6411 54.905 48.9111 55.076 48.9671 55.347C49.2901 56.925 49.077 61.075 47.215 61.613C46.915 61.7 46.551 61.735 46.158 61.735ZM42.263 54.996C42.033 54.996 41.9661 55.088 41.9321 55.135C41.5131 55.715 41.927 57.581 42.486 59.209C42.952 57.754 43.3011 56.005 42.8681 55.295C42.7571 55.111 42.596 55.02 42.347 55C42.316 54.998 42.289 54.996 42.263 54.996Z" fill="#92B4EA"/>
<path d="M45.9801 69.84C45.5501 69.84 45.1761 69.658 44.9001 69.314C43.5721 67.66 44.8061 61.964 44.9521 61.32C45.0001 61.103 45.1861 60.945 45.4071 60.931C45.6241 60.921 45.8331 61.05 45.9091 61.259C46.2941 62.318 48.1581 67.68 47.0281 69.301C46.7831 69.652 46.4231 69.839 45.9861 69.84C45.9831 69.84 45.9801 69.84 45.9801 69.84ZM45.5691 63.439C45.2441 65.547 45.0941 67.96 45.6791 68.687C45.7661 68.796 45.8431 68.811 45.9811 68.84C46.1051 68.84 46.1581 68.799 46.2071 68.729C46.6801 68.05 46.2131 65.627 45.5691 63.439Z" fill="#92B4EA"/>
<path d="M35.4901 92.3459C35.2801 92.2959 35.0601 92.2459 34.8501 92.1859C33.0701 91.7159 31.3201 91.1359 29.6301 90.4559C26.6501 89.2759 23.8101 87.7859 21.1701 86.0359C20.3501 85.4959 19.5401 84.9259 18.7601 84.3359C17.2001 83.1559 15.7201 81.8859 14.3201 80.5159C14.3401 80.3859 14.3701 80.2559 14.4001 80.1259C16.9501 68.5859 21.7901 61.4859 25.7901 57.3659C29.4101 53.6459 32.8761 52.3259 32.8761 52.3259C32.8361 52.4459 32.2801 52.5659 32.2401 52.6959C31.8501 54.1359 31.6701 56.1859 31.6601 58.6759C31.6301 67.2659 33.5901 81.0259 35.4901 92.3459Z" fill="#F7B369"/>
<path d="M42.607 34.629C42.299 34.602 42.106 34.384 42.106 34.13C42.108 34.082 42.342 31.627 42.342 31.627C42.369 31.352 42.618 31.147 42.888 31.177C43.147 31.201 43.34 31.419 43.34 31.674C43.338 31.722 43.104 34.177 43.104 34.177C43.079 34.435 42.861 34.629 42.607 34.629Z" fill="black"/>
<path d="M35.386 34.438C35.365 34.438 35.342 34.436 35.321 34.434C35.069 34.401 34.885 34.186 34.885 33.939C34.885 33.918 34.886 33.896 34.889 33.874L35.207 31.429C35.243 31.155 35.496 30.962 35.768 30.998C36.02 31.031 36.203 31.245 36.203 31.493C36.203 31.514 36.202 31.536 36.199 31.558L35.881 34.003C35.848 34.255 35.633 34.438 35.386 34.438Z" fill="black"/>
<path d="M42.078 43.1169C40.932 43.1169 39.859 42.501 39.808 42.471C39.647 42.377 39.551 42.2 39.561 42.013C39.57 41.826 39.683 41.66 39.853 41.583L43.409 39.969C43.566 39.897 43.749 39.912 43.892 40.008C44.035 40.103 44.12 40.266 44.116 40.438C44.109 40.686 44.005 42.8639 42.502 43.0849C42.36 43.1079 42.219 43.1169 42.078 43.1169ZM41.329 42.013C41.65 42.097 42.013 42.1459 42.355 42.0979C42.664 42.0519 42.863 41.6749 42.98 41.2639L41.329 42.013Z" fill="black"/>
<path d="M34.6661 29.869C34.4371 29.869 34.2311 29.711 34.1781 29.478C34.1181 29.208 34.2871 28.941 34.5571 28.881L36.7851 28.382C37.0601 28.323 37.3221 28.491 37.3831 28.76C37.4431 29.03 37.2741 29.297 37.0041 29.357L34.7761 29.856C34.7381 29.865 34.7021 29.869 34.6661 29.869Z" fill="black"/>
<path d="M44.785 30.3699C44.74 30.3699 44.694 30.3639 44.648 30.3509L41.131 29.3509C40.865 29.2749 40.711 28.9989 40.787 28.7329C40.862 28.4679 41.134 28.3109 41.404 28.3889L44.922 29.3889C45.188 29.4649 45.342 29.7409 45.266 30.0069C45.203 30.2269 45.003 30.3699 44.785 30.3699Z" fill="black"/>
<path d="M42.8411 32.1739C42.7321 32.1739 42.6221 32.1379 42.5301 32.0659L41.7061 31.4109C41.4901 31.2389 41.4541 30.9239 41.6261 30.7079C41.7991 30.4909 42.1121 30.4579 42.3291 30.6269L43.1531 31.2819C43.3691 31.4539 43.4051 31.7689 43.2331 31.9849C43.1341 32.1089 42.9871 32.1739 42.8411 32.1739Z" fill="black"/>
<path d="M35.7031 31.993C35.5801 31.993 35.4581 31.948 35.3611 31.858L34.6751 31.215C34.4741 31.027 34.4631 30.71 34.6521 30.508C34.8411 30.306 35.1581 30.296 35.3591 30.485L36.0461 31.128C36.2471 31.316 36.2581 31.633 36.0691 31.835C35.9701 31.94 35.8371 31.993 35.7031 31.993Z" fill="black"/>
</svg>
