<svg width="94" height="94" viewBox="0 0 94 94" fill="none" xmlns="http://www.w3.org/2000/svg">
<path d="M93.469 46.782C93.469 53.042 92.239 59.012 89.999 64.462C88.359 68.452 86.179 72.172 83.549 75.522C83.499 75.582 83.459 75.642 83.409 75.692C79.839 80.212 75.449 84.062 70.449 86.972C67.019 89.002 63.309 90.602 59.389 91.692C56.739 92.432 53.999 92.942 51.179 93.192C49.759 93.332 48.309 93.402 46.849 93.402C45.199 93.402 43.569 93.322 41.959 93.152C40.909 93.042 39.869 92.892 38.839 92.712C37.699 92.512 36.579 92.272 35.469 91.992C35.259 91.942 35.039 91.892 34.829 91.832C33.049 91.362 31.299 90.782 29.609 90.102C29.569 90.082 29.529 90.072 29.489 90.052C27.209 89.142 25.019 88.062 22.939 86.802C22.329 86.442 21.739 86.072 21.149 85.682C21.129 85.672 21.119 85.662 21.099 85.642C20.579 85.302 20.049 84.942 19.539 84.572C19.269 84.372 18.999 84.182 18.739 83.982C17.179 82.802 15.699 81.532 14.299 80.162C14.079 79.952 13.859 79.732 13.659 79.512C10.599 76.422 7.98899 72.922 5.89899 69.092C2.27899 62.462 0.218994 54.862 0.218994 46.782C0.218994 21.032 21.099 0.161987 46.849 0.161987C72.599 0.161987 93.469 21.032 93.469 46.782Z" fill="#E8E1EF"/>
<path d="M56.8909 21.265C56.8909 21.265 61.8959 20.45 61.9979 33.692C62.0999 46.934 61.9979 48.36 61.9979 48.36H49.71L52.041 24.882L56.8909 21.265Z" fill="black"/>
<path d="M37.226 17.39C37.226 17.39 32.3959 23.586 30.1689 32.37C28.3869 39.396 27.1799 46.789 27.1799 46.789L40.679 48.36L41.077 24.77L37.226 17.39Z" fill="black"/>
<path d="M42.1081 58.636C39.1431 58.636 37.0852 57.788 37.0462 57.771C36.8142 57.672 36.7052 57.4029 36.8042 57.1699C36.9032 56.9369 37.1752 56.828 37.4052 56.927C37.4742 56.956 44.4981 59.829 51.1491 54.466C51.3451 54.308 51.6351 54.338 51.7941 54.535C51.9531 54.732 51.9222 55.0199 51.7262 55.1799C48.3282 57.9189 44.8351 58.636 42.1081 58.636Z" fill="#F7C537"/>
<path d="M70.4491 86.9719C67.0191 89.0019 63.3091 90.6019 59.3891 91.6919C56.7391 92.4319 53.9991 92.9419 51.1791 93.1919C49.7591 93.3319 48.3091 93.4019 46.8491 93.4019C45.1991 93.4019 43.5691 93.3219 41.9591 93.1519C40.9091 93.0419 39.8691 92.8919 38.8391 92.7119C37.6991 92.5119 36.5791 92.2719 35.4691 91.9919C35.2591 91.9419 35.0391 91.8919 34.8291 91.8319C33.0491 91.3619 31.2991 90.7819 29.6091 90.1019C29.5691 90.0819 29.5291 90.0719 29.4891 90.0519C27.2091 89.1419 25.0191 88.0619 22.9391 86.8019C22.3291 86.4419 21.7391 86.0719 21.1491 85.6819C21.1291 85.6719 21.1191 85.6619 21.0991 85.6419C21.5591 79.8119 22.6591 72.9819 25.1191 67.2819C25.1791 67.1419 25.2391 67.0019 25.3091 66.8619C28.6791 59.3419 33.9792 55.7719 37.6292 54.1319C40.0092 53.0719 41.6891 52.8119 41.6891 52.8119C41.6891 52.8119 45.8391 52.0319 50.8691 51.9619C57.2691 51.8719 65.0891 52.9219 67.5691 58.2219C69.4691 62.2919 70.2091 74.4419 70.4491 86.9719Z" fill="#A37B90"/>
<path d="M38.5391 52.942C38.2491 53.132 37.9491 53.532 37.6291 54.132C35.2791 58.552 32.2991 73.572 29.4891 90.052C27.2091 89.142 25.0191 88.062 22.9391 86.802C22.3291 86.442 21.739 86.072 21.149 85.682C21.129 85.672 21.1191 85.662 21.0991 85.642C20.5791 85.302 20.0491 84.942 19.5391 84.572C19.7591 82.342 19.8791 81.052 19.8791 81.052L25.8591 62.252C25.8591 62.252 28.579 58.542 31.889 56.182C35.189 53.832 38.5391 52.942 38.5391 52.942Z" fill="#68B6D8"/>
<path d="M83.409 75.692C79.839 80.212 75.449 84.062 70.449 86.972C67.019 89.002 63.309 90.602 59.389 91.692C56.739 92.432 53.9991 92.942 51.1791 93.192C51.5591 72.322 51.769 53.412 51.039 52.742C50.829 52.552 50.8091 52.272 50.8691 51.962C51.0591 51.182 51.8691 50.242 51.8691 50.242C70.2891 49.512 77.8391 62.292 79.0491 65.092C80.7691 69.072 82.189 72.312 83.409 75.692Z" fill="#68B6D8"/>
<path d="M51.6681 42.543L51.436 52.99C51.436 52.99 49.485 55.951 43.363 56.312C38.802 56.581 37.2261 55.516 37.2261 55.516L37.9781 50.239L38.7181 45.093L49.8071 42.911L51.6681 42.543Z" fill="#F48462"/>
<path d="M49.808 42.911C49.775 43.196 49.659 43.53 49.482 43.912C47.029 49.078 40.613 50.062 37.978 50.239L38.718 45.093L49.808 42.911Z" fill="black"/>
<path d="M36.9179 21.2299C36.9179 21.2299 31.1449 34.2059 33.1439 41.5309C35.1439 48.8559 41.8129 47.7499 45.8079 46.3629C49.8029 44.9759 51.6699 42.5439 51.6699 42.5439C51.6699 42.5439 55.3849 43.8309 57.8979 40.3859C60.4109 36.9409 58.9049 32.9539 56.7849 32.0289C54.6649 31.1039 52.1269 32.6219 52.1269 32.6219L54.1339 28.8529C54.1339 28.8529 45.9269 9.57693 36.9179 21.2299Z" fill="#F48462"/>
<path d="M37.408 37.855C37.194 37.855 36.997 37.717 36.931 37.503C36.058 34.68 38.041 31.816 38.126 31.696C38.285 31.47 38.596 31.417 38.822 31.575C39.048 31.733 39.102 32.045 38.944 32.271C38.926 32.296 37.159 34.858 37.885 37.207C37.967 37.471 37.819 37.751 37.555 37.832C37.507 37.848 37.457 37.855 37.408 37.855Z" fill="black"/>
<path d="M52.6811 38.812C52.5581 38.812 52.4351 38.767 52.3381 38.676C52.1371 38.487 52.1281 38.17 52.3171 37.969L55.8521 34.223C56.0401 34.023 56.3571 34.013 56.5581 34.202C56.7591 34.391 56.7681 34.708 56.5781 34.909L53.0431 38.655C52.9461 38.759 52.8141 38.812 52.6811 38.812Z" fill="black"/>
<path d="M56.4239 37.8079C56.3989 37.8079 56.3729 37.806 56.3479 37.802L53.9029 37.4319C53.6309 37.3909 53.4419 37.1359 53.4839 36.8629C53.5249 36.5899 53.7818 36.398 54.0528 36.444L56.4978 36.814C56.7698 36.855 56.9589 37.11 56.9169 37.383C56.8799 37.63 56.6669 37.8079 56.4239 37.8079Z" fill="black"/>
<path d="M45.5649 28.353C45.3839 28.353 45.2099 28.254 45.1209 28.082C44.5569 26.983 42.9949 27.307 42.9789 27.311C42.7079 27.373 42.4419 27.197 42.3849 26.928C42.3259 26.658 42.4969 26.392 42.7679 26.334C42.8629 26.314 45.0969 25.853 46.0089 27.625C46.1359 27.871 46.039 28.172 45.793 28.299C45.72 28.335 45.6419 28.353 45.5649 28.353Z" fill="black"/>
<path d="M34.852 27.262C34.748 27.262 34.642 27.23 34.553 27.162C34.333 26.997 34.286 26.687 34.449 26.467C34.943 25.799 36.353 24.842 38.144 26.009C38.376 26.159 38.441 26.469 38.29 26.7C38.14 26.933 37.829 26.998 37.599 26.846C36.179 25.925 35.341 26.945 35.25 27.064C35.152 27.194 35.003 27.262 34.852 27.262Z" fill="black"/>
<path d="M43.0689 56.999C39.7779 56.999 37.0969 56.002 37.0469 55.983C36.7889 55.884 36.6599 55.595 36.7589 55.337C36.8579 55.079 37.147 54.953 37.403 55.048C37.493 55.082 46.255 58.329 51.054 52.666C51.235 52.455 51.5489 52.43 51.7589 52.608C51.9699 52.786 51.9949 53.102 51.8179 53.313C49.3519 56.223 45.9729 56.999 43.0689 56.999Z" fill="#FFB255"/>
<path d="M43.3061 33.001C43.2851 33.001 43.2631 32.999 43.2411 32.997C42.9681 32.962 42.773 32.711 42.808 32.437L43.095 30.19L42.449 29.172C42.302 28.939 42.3711 28.63 42.6041 28.482C42.8351 28.334 43.1451 28.402 43.2941 28.637L44.035 29.808C44.097 29.907 44.123 30.023 44.108 30.139L43.798 32.564C43.769 32.817 43.5541 33.001 43.3061 33.001Z" fill="black"/>
<path d="M36.1071 32.423C36.0831 32.423 36.0581 32.422 36.0341 32.418C35.7611 32.378 35.5712 32.124 35.6112 31.851L35.9361 29.64L35.1411 28.597C34.9731 28.377 35.0162 28.064 35.2362 27.896C35.4532 27.729 35.7671 27.77 35.9361 27.99L36.8592 29.2C36.9412 29.307 36.9761 29.443 36.9571 29.576L36.6021 31.995C36.5651 32.244 36.3511 32.423 36.1071 32.423Z" fill="black"/>
<path d="M34.293 24.219C34.293 24.219 38.4949 24.015 40.9919 24.219C43.4889 24.423 43.489 24.423 43.489 24.423L44.7809 21.265V24.932C44.7809 24.932 47.3489 25.948 48.0999 26.764C48.8509 27.58 49.9089 29.617 49.9089 29.617L51.2709 27.851L50.4579 35.422C50.4579 35.422 51.737 31.936 54.197 31.982C56.657 32.028 57.4399 32.499 57.4399 32.499C57.4399 32.499 59.5319 25.236 59.1769 23.199C58.8219 21.162 56.892 21.264 56.892 21.264C56.892 21.264 54.864 14.338 44.887 14.338C34.91 14.339 34.293 24.219 34.293 24.219Z" fill="black"/>
<path d="M25.8589 62.252L25.309 66.862L22.939 86.802C22.329 86.442 21.7389 86.072 21.1489 85.682C21.1289 85.672 21.1189 85.662 21.0989 85.642C20.5789 85.302 20.0489 84.942 19.5389 84.572C19.2689 84.372 18.999 84.182 18.739 83.982C17.179 82.802 15.699 81.532 14.299 80.162C14.079 79.952 13.8589 79.732 13.6589 79.512C19.3689 69.172 25.8589 62.252 25.8589 62.252Z" fill="#68B6D8"/>
<path d="M40.576 41.18C40.111 41.18 39.698 41.097 39.41 40.994C39.149 40.902 39.014 40.616 39.105 40.356C39.198 40.097 39.48 39.96 39.742 40.051C39.813 40.076 41.471 40.627 42.469 39.256C42.633 39.033 42.9461 38.985 43.1681 39.147C43.3911 39.31 43.439 39.623 43.277 39.846C42.522 40.882 41.456 41.18 40.576 41.18Z" fill="black"/>
</svg>
