<svg width="94" height="94" viewBox="0 0 94 94" fill="none" xmlns="http://www.w3.org/2000/svg">
<path d="M93.8211 47.149C93.8211 55.659 91.5411 63.639 87.5511 70.509C87.4011 70.7691 87.2411 71.029 87.0811 71.289C86.7111 71.909 86.3211 72.529 85.9111 73.129C85.7411 73.379 85.5711 73.629 85.3811 73.879C79.301 82.589 70.3011 89.0891 59.8211 92.039C59.6011 92.099 59.3711 92.159 59.1511 92.219C55.3411 93.229 51.3311 93.769 47.201 93.769C31.091 93.769 16.8811 85.5991 8.53106 73.1691C7.74106 72.0191 7.01105 70.819 6.34105 69.599C2.67105 62.939 0.581055 55.289 0.581055 47.149C0.581055 21.399 21.451 0.529053 47.201 0.529053C72.951 0.529053 93.8211 21.399 93.8211 47.149Z" fill="#E8E1EF"/>
<path d="M39.5881 33.084C39.5881 33.084 31.6891 30.549 31.6461 36.487C31.5961 43.366 39.7481 42.669 39.7481 42.669L39.5881 33.084Z" fill="#F27E64"/>
<path d="M36.3351 39.624C36.1791 39.624 36.0261 39.551 35.9281 39.415L32.9871 35.306C32.8261 35.081 32.8781 34.769 33.1031 34.608C33.3291 34.447 33.6401 34.5 33.8011 34.724L36.7421 38.833C36.9031 39.058 36.8511 39.37 36.6261 39.531C36.5381 39.594 36.4361 39.624 36.3351 39.624Z" fill="black"/>
<path d="M33.264 38.597C33.012 38.597 32.796 38.408 32.767 38.152C32.737 37.878 32.935 37.631 33.209 37.6L35.373 37.361C35.655 37.337 35.894 37.53 35.925 37.803C35.955 38.077 35.757 38.324 35.483 38.355L33.319 38.594C33.3 38.596 33.282 38.597 33.264 38.597Z" fill="black"/>
<path d="M92.26 59.1561C86.98 79.1061 68.81 93.7961 47.2 93.7961C32.66 93.7961 19.68 87.1461 11.13 76.7261C24.77 60.0361 39.48 58.2561 39.48 58.2561C39.48 58.2561 39.13 55.7361 39.48 55.0561C39.73 54.5761 40.65 54.1361 41.16 53.9261C41.36 53.8461 41.49 53.7961 41.49 53.7961C41.49 53.7961 42.23 53.6661 43.39 53.4861C45.72 53.1161 49.74 52.5261 52.86 52.2961C53.81 52.2161 54.68 52.1761 55.39 52.1861C56.16 52.1961 56.75 52.2661 57.07 52.4161C57.46 52.5961 57.91 53.7961 57.91 53.7961C57.91 53.7961 63.68 52.9061 71.65 53.7961C75.001 54.1761 83.33 55.7161 92.26 59.1561Z" fill="#A37B90"/>
<path d="M54.7961 48.011L55.6041 55.982C55.6041 55.982 52.6791 57.928 48.8351 58.352C43.6461 58.925 41.6051 56.006 41.6051 56.006L40.7721 46.65L54.7961 48.011Z" fill="#F48462"/>
<path d="M54.794 47.999C54.794 47.999 52.906 54.689 46.924 54.357C42.102 54.09 40.113 47.473 40.113 47.473L54.794 47.999Z" fill="black"/>
<path d="M36.5641 26.784C36.5641 26.784 34.5941 41.695 39.3791 47.771C44.5111 54.287 51.5401 51.5431 54.0491 49.2121C57.4341 46.0681 57.8181 42.109 57.8181 42.109C57.8181 42.109 62.9231 42.64 64.2131 38.396C65.5681 33.939 62.1241 30.766 59.5971 30.795C57.0711 30.824 56.8211 31.308 56.8211 31.308L57.1291 26.6541C57.1291 26.6541 40.3091 11.138 36.5641 26.784Z" fill="#F48462"/>
<path d="M58.2191 37.898C58.0941 37.898 57.9691 37.851 57.8711 37.757C57.6731 37.565 57.6671 37.248 57.8591 37.05L61.4181 33.372C61.6101 33.172 61.9261 33.169 62.1251 33.36C62.3231 33.552 62.3291 33.869 62.1371 34.067L58.5781 37.745C58.4811 37.848 58.3501 37.898 58.2191 37.898Z" fill="black"/>
<path d="M61.8491 38.176C61.7601 38.176 61.6691 38.152 61.5871 38.102L59.1441 36.598C58.9091 36.453 58.8361 36.145 58.9801 35.91C59.1231 35.675 59.4311 35.601 59.6681 35.746L62.1111 37.25C62.3461 37.395 62.4191 37.703 62.2751 37.938C62.1811 38.092 62.0171 38.176 61.8491 38.176Z" fill="black"/>
<path d="M50.3021 34.5691C50.0341 34.5691 49.8121 34.3571 49.8031 34.0861L49.7181 31.6161C49.7081 31.3401 49.9241 31.1091 50.2001 31.0991C50.4701 31.0861 50.7071 31.3051 50.7171 31.5811L50.8031 34.0511C50.8131 34.3271 50.5971 34.5581 50.3201 34.5681C50.3141 34.5691 50.3081 34.5691 50.3021 34.5691Z" fill="black"/>
<path d="M40.852 34.9301C40.584 34.9301 40.362 34.7181 40.353 34.4471L40.268 31.9781C40.258 31.7021 40.474 31.4711 40.75 31.4611C41.02 31.4281 41.257 31.6671 41.267 31.9431L41.352 34.4121C41.362 34.6881 41.146 34.9191 40.87 34.9291C40.863 34.9301 40.857 34.9301 40.852 34.9301Z" fill="black"/>
<path d="M45.799 41.0421C45.583 41.0421 45.384 40.9011 45.32 40.6841C44.19 36.8671 45.136 33.594 45.177 33.456C45.256 33.192 45.533 33.0411 45.798 33.1191C46.063 33.1971 46.214 33.4751 46.136 33.7401C46.127 33.7711 45.236 36.878 46.279 40.4C46.357 40.665 46.206 40.9431 45.942 41.0221C45.894 41.0351 45.846 41.0421 45.799 41.0421Z" fill="black"/>
<path d="M39.172 29.89C39.048 29.89 38.923 29.844 38.827 29.752C38.627 29.561 38.62 29.245 38.81 29.045C39.798 28.011 41.581 27.86 41.657 27.855C41.93 27.832 42.172 28.039 42.194 28.314C42.216 28.589 42.01 28.83 41.736 28.852C41.721 28.853 40.256 28.98 39.534 29.736C39.435 29.838 39.303 29.89 39.172 29.89Z" fill="black"/>
<path d="M51.315 29.688C51.23 29.688 51.143 29.666 51.064 29.62C50.163 29.094 48.718 29.376 48.703 29.38C48.437 29.434 48.169 29.261 48.114 28.99C48.059 28.72 48.233 28.456 48.503 28.401C48.577 28.386 50.332 28.037 51.568 28.756C51.806 28.895 51.887 29.201 51.748 29.44C51.654 29.599 51.487 29.688 51.315 29.688Z" fill="black"/>
<path d="M57.947 32.898C57.947 32.898 57.259 37.6391 56.649 37.5701C56.039 37.5011 55.642 30.313 57.259 29.704C58.875 29.096 57.947 32.898 57.947 32.898Z" fill="black"/>
<path d="M46.526 45.256C46.259 45.256 46.039 45.045 46.027 44.776C46.016 44.501 46.231 44.268 46.506 44.256C46.606 44.252 48.965 44.127 49.885 42.107C50 41.856 50.297 41.745 50.547 41.859C50.798 41.973 50.909 42.27 50.795 42.521C49.616 45.11 46.669 45.251 46.545 45.255C46.539 45.256 46.532 45.256 46.526 45.256Z" fill="black"/>
<path d="M57.204 30.6261C57.204 30.6261 52.116 30.4231 48.603 27.9421C45.636 25.8481 44.387 22.7261 44.387 22.7261C44.387 22.7261 42.195 22.542 39.172 24.59C36.148 26.638 36.163 32.551 36.163 32.551C36.163 32.551 29.985 22.7991 32.564 19.1401C35.143 15.4811 39.748 18.2251 39.748 18.2251C39.748 18.2251 38.67 11.72 47.833 13.855C56.996 15.989 59.407 23.7141 59.407 23.7141C59.407 23.7141 62.485 23.3071 62.993 26.1531C63.501 28.9991 62.462 31.9601 62.462 31.9601C62.462 31.9601 61.062 30.7431 59.029 31.5991C56.996 32.4551 56.996 32.4551 56.996 32.4551L57.204 30.6261Z" fill="black"/>
<path d="M41.4911 53.8011C41.4911 53.8011 43.3091 55.5251 47.5151 55.6301C51.7211 55.7351 55.4101 52.3361 55.4101 52.3361L58.1201 57.3081L51.4191 61.3991L40.1891 60.4551V55.4201L41.4911 53.8011Z" fill="#A37B90"/>
<path d="M46.1311 61.91C41.5861 61.91 39.1061 58.587 39.0771 58.546C38.9151 58.323 38.9641 58.012 39.1871 57.849C39.4101 57.688 39.7231 57.735 39.8851 57.957C40.0131 58.133 43.1071 62.238 48.8871 60.478C49.1531 60.399 49.4301 60.547 49.5111 60.811C49.5911 61.075 49.4421 61.354 49.1781 61.435C48.0781 61.77 47.0611 61.91 46.1311 61.91Z" fill="white"/>
</svg>
